<svg width="1920" height="5772" viewBox="0 0 1920 5772" fill="none" xmlns="http://www.w3.org/2000/svg">
<path d="M-426.365 5657.83C-162.442 5595.56 113.164 5446.46 276.336 5225.3C521.652 4892.56 413.197 4233.03 -67.5597 4175.67C-307.872 4146.63 -467.338 4495.32 -161.54 4522.42C75.0949 4543.36 416.246 4108.98 410.386 3714.03C406.154 3398 185.982 3124.95 -52.8437 2940.42C-262.538 2778.36 -645.526 2529.23 -910.768 2706.22C-1057.75 2804.29 -1069.82 3032.73 -972.21 3180.66C-874.602 3328.59 -700.426 3406.92 -528.895 3447.66C-216.91 3521.16 117.689 3492.79 412.461 3368.01C561.053 3305.11 703.707 3214.4 795.7 3081.64C840.091 3017.94 872.038 2941.53 864.287 2863.69C849.834 2722.3 713.143 2629.43 586.55 2565.87C329.205 2437.24 53.8065 2346.05 -201.043 2211.95C-500.314 2054.03 -775.774 1819.67 -883.558 1487.39C-911.389 1402.11 -984.52 1174.17 -885.121 965.647C-645.889 466.36 234.139 422.056 674.929 606.996C843.149 677.541 993.763 818.992 1024.59 999.767C1036.35 1067.97 1026.71 1147.77 974.069 1192.14C934.42 1226.32 877.703 1232.85 825.977 1228.44C599.623 1207.93 430.31 991.795 387.493 767.997C334.861 493.42 411.122 166.374 499.676 -95.3413" stroke="#ADADAD" stroke-opacity="0.04" stroke-width="10" stroke-linejoin="round"/>
<path d="M1075.21 -65.8243C1343.63 -4.5498 1624.57 144.852 1791.93 368.29C2043.55 704.467 1938.53 1375.23 1450.91 1437.1C1207.17 1468.39 1042.59 1115.38 1352.82 1085.56C1592.89 1062.52 1942.58 1501.22 1939.68 1902.47C1937.83 2223.53 1716.41 2502.54 1475.38 2691.78C1263.75 2857.97 876.86 3113.9 606.219 2936.09C456.249 2837.57 442.232 2605.61 540.182 2454.61C638.132 2303.61 814.352 2222.74 988.177 2180.07C1304.34 2103.07 1644.24 2129.39 1944.46 2253.94C2095.8 2316.73 2241.32 2407.81 2335.73 2541.98C2381.29 2606.36 2414.31 2683.73 2407.05 2762.86C2393.46 2906.6 2255.41 3001.97 2127.39 3067.48C1867.12 3200.06 1588.24 3294.75 1330.55 3432.88C1027.95 3595.54 750.107 3835.66 643.249 4174.01C615.652 4260.84 543.168 4492.94 645.689 4704.01C892.41 5209.41 1786.16 5247.84 2232.22 5056.67C2402.46 4983.76 2554.27 4838.94 2584.17 4655.08C2595.58 4585.71 2585.18 4504.72 2531.4 4460.03C2490.88 4425.61 2433.25 4419.4 2380.77 4424.27C2151.14 4446.8 1980.92 4667.62 1939.18 4895.28C1887.86 5174.59 1967.81 5506.24 2059.73 5771.43" stroke="#ADADAD" stroke-opacity="0.04" stroke-width="10" stroke-linejoin="round"/>
</svg>
